PathFileType	4	(X/Y/Z)
DataRate	CameraRate	NumFrames	NumMarkers	Units	OrigDataRate	OrigDataStartFrame	OrigNumFrames	
  100.0	  100.0	    4	     56	     mm	  100.0	      535	    855
Frame#	Time	LASI			RASI			LPSI			RPSI			RTH1			RTH2			RTH3			RLFC			RMFC			LTH1			LTH2			LTH3			LLFC			LMFC			RTB1			RTB2			RTB3			RLMAL			RMMAL			LTB1			LTB2			LTB3			LMMAL			LLMAL			RCAL			RTOE			RMT5			LCAL			LTOE			LMT5			LACR			RACR			CLAV			C7			LASH			LPSH			RASH			RPSH			RUA1			RUA2			RUA3			RLEL			RMEL			LUA1			LUA2			LUA3			LLEL			LMEL			RFAsuperior			RFAradius			RFAulna			LFAsuperior			LFAradius			LFAulna			RHJC			LHJC			
		X1	Y1	Z1	X2	Y2	Z2	X3	Y3	Z3	X4	Y4	Z4	X5	Y5	Z5	X6	Y6	Z6	X7	Y7	Z7	X8	Y8	Z8	X9	Y9	Z9	X10	Y10	Z10	X11	Y11	Z11	X12	Y12	Z12	X13	Y13	Z13	X14	Y14	Z14	X15	Y15	Z15	X16	Y16	Z16	X17	Y17	Z17	X18	Y18	Z18	X19	Y19	Z19	X20	Y20	Z20	X21	Y21	Z21	X22	Y22	Z22	X23	Y23	Z23	X24	Y24	Z24	X25	Y25	Z25	X26	Y26	Z26	X27	Y27	Z27	X28	Y28	Z28	X29	Y29	Z29	X30	Y30	Z30	X31	Y31	Z31	X32	Y32	Z32	X33	Y33	Z33	X34	Y34	Z34	X35	Y35	Z35	X36	Y36	Z36	X37	Y37	Z37	X38	Y38	Z38	X39	Y39	Z39	X40	Y40	Z40	X41	Y41	Z41	X42	Y42	Z42	X43	Y43	Z43	X44	Y44	Z44	X45	Y45	Z45	X46	Y46	Z46	X47	Y47	Z47	X48	Y48	Z48	X49	Y49	Z49	X50	Y50	Z50	X51	Y51	Z51	X52	Y52	Z52	X53	Y53	Z53	X54	Y54	Z54	X55	Y55	Z55	X56	Y56	Z56	

566	5.66000	906.01251	1081.20024	-460.08524	668.46972	1090.76741	-459.92073	835.51490	1115.32079	-625.24853	749.02564	1115.09306	-625.84156	605.93185	834.43819	-562.78828	625.94705	757.95804	-497.68446	621.07696	663.60419	-575.79929	619.46071	543.91045	-566.13910	731.53637	526.02048	-580.16887	955.81311	864.60200	-574.17057	959.28879	750.59713	-512.76863	949.89069	655.49880	-576.75496	946.64784	534.22964	-560.70671	837.98041	522.42110	-581.36020	654.54202	410.02466	-550.56066	614.48049	358.13102	-599.68966	662.63256	229.79891	-582.27669	652.80720	119.99021	-631.48607	729.63225	140.58409	-600.82869	919.62708	417.32940	-551.10043	933.65369	320.46513	-639.60650	889.53755	229.07260	-576.74857	809.66294	127.42809	-595.88375	891.42567	110.42943	-621.64893	720.99097	98.62947	-683.23353	675.95143	73.74590	-461.19208	610.59648	55.25408	-540.00793	831.61544	87.33155	-680.47305	853.45454	76.06236	-454.15598	920.01631	56.08921	-515.09055	916.72852	1625.20105	-537.52951	657.59519	1604.04608	-544.19705	759.97786	1522.83382	-447.12397	776.61268	1604.28670	-564.20194	932.74911	1570.30294	-480.74506	910.73148	1584.81837	-614.65850	631.38312	1558.59843	-496.83580	668.45309	1579.75072	-608.94268	556.12201	1548.36689	-638.85089	557.56099	1474.03078	-696.27458	495.92523	1480.63882	-732.28015	437.44323	1464.35191	-770.39909	449.60329	1391.54679	-725.92536	987.08704	1567.60392	-638.02108	1028.95103	1489.28158	-682.51670	1093.08372	1523.16182	-705.96958	1158.44057	1501.28845	-754.54589	1150.78960	1425.74710	-713.98310	381.48964	1428.48942	-815.13449	183.95334	1380.97263	-854.11248	225.05026	1347.86561	-896.92683	1223.78469	1454.84925	-807.99701	1403.78348	1426.56180	-824.71542	1365.45917	1414.65851	-888.02417	683.62257	990.32930	-543.58692	889.80963	979.45827	-538.47892	
567	5.67000	906.03719	1081.27229	-460.16248	668.41296	1090.81260	-459.94737	835.44121	1115.31520	-625.25752	748.92605	1115.10632	-625.85566	605.79834	834.44775	-562.65249	625.93100	757.95517	-497.63271	620.96878	663.43744	-575.85510	619.46887	543.89815	-566.07679	731.50290	526.04057	-580.08984	955.74901	864.58374	-574.04173	959.21991	750.61222	-512.67701	949.82757	655.49982	-576.61087	946.57232	534.22871	-560.52949	837.90788	522.40383	-581.29556	654.52743	410.06521	-550.33517	614.46230	358.08063	-599.62836	662.65149	229.89906	-582.14430	652.82683	120.00037	-631.53405	729.63600	140.58500	-600.82625	919.56615	417.32697	-550.99898	933.61390	320.46747	-639.49934	889.44020	229.09595	-576.65501	809.65646	127.41860	-595.87022	891.42079	110.43366	-621.64425	720.98623	98.62644	-683.22685	675.95851	73.74679	-461.17647	610.58822	55.24005	-539.99061	831.60535	87.32662	-680.45482	853.44848	76.05784	-454.15570	920.00170	56.08654	-515.12386	916.33944	1625.64564	-536.91410	657.90794	1604.58108	-543.44727	760.05621	1522.78617	-446.57797	776.74208	1604.28721	-563.59835	932.68764	1570.72828	-480.27760	909.98990	1585.66354	-614.08210	631.49489	1559.11486	-496.24233	669.10706	1580.60719	-608.15956	556.91664	1550.52750	-638.71614	558.31811	1476.74455	-696.95649	496.95920	1484.09664	-733.24773	438.55903	1468.51739	-771.76644	450.07542	1395.16632	-728.15624	986.18214	1569.46708	-637.88923	1028.37698	1491.95918	-683.31318	1092.17263	1526.50013	-706.67587	1157.33782	1505.51946	-755.83568	1150.54457	1429.55361	-715.93724	382.83180	1433.46154	-817.42162	185.24907	1388.06132	-859.07413	226.47162	1354.27492	-901.12962	1222.63587	1459.40442	-809.58500	1402.80099	1433.62679	-828.61897	1363.89100	1423.15477	-893.92765	683.58800	990.34480	-543.55474	889.77954	979.50737	-538.52402	
568	5.68000	906.07003	1081.32182	-460.28545	668.37730	1090.84415	-459.98192	835.36563	1115.31549	-625.30509	748.83172	1115.11302	-625.90036	605.72622	834.43165	-562.57538	625.93395	757.94679	-497.59028	620.84271	663.23168	-576.02803	619.48541	543.89422	-565.97951	731.49109	526.05013	-580.02716	955.68840	864.57650	-574.03512	959.17903	750.62713	-512.66403	949.77832	655.50104	-576.56836	946.51401	534.22285	-560.43303	837.84197	522.39017	-581.23512	654.51376	410.08407	-550.13936	614.59776	358.33351	-599.33155	662.64777	229.91689	-582.11067	652.82681	120.01401	-631.59565	729.63231	140.58128	-600.82579	919.51328	417.30368	-550.94677	933.57643	320.46854	-639.45485	889.38639	229.09393	-576.60667	809.65471	127.39922	-595.86779	891.41267	110.43385	-621.64227	720.98616	98.63451	-683.25062	675.96475	73.74720	-461.16273	610.59341	55.23074	-539.98383	831.60016	87.32066	-680.44913	853.44645	76.05988	-454.15497	919.98497	56.07919	-515.17298	915.96110	1626.06298	-536.33717	658.15684	1605.06864	-542.70692	760.12523	1522.72873	-446.07248	776.86217	1604.27787	-563.03526	932.62861	1571.15887	-479.84680	909.27541	1586.41194	-613.57125	631.59263	1559.58323	-495.60422	669.68506	1581.39493	-607.44777	557.63248	1552.51684	-638.51003	559.04581	1479.29931	-697.53683	497.96426	1487.34474	-734.08143	439.64569	1472.39753	-772.99903	450.54456	1398.58685	-730.16208	985.28409	1571.08455	-637.77364	1027.81810	1494.17227	-683.78430	1091.13235	1529.49295	-707.52957	1156.23473	1509.18119	-756.87085	1150.39265	1433.11264	-717.40359	384.12897	1438.11165	-819.47710	186.57124	1394.56026	-863.58078	227.89076	1360.13644	-904.87367	1221.46851	1463.15194	-810.80673	1401.82172	1440.39062	-832.20115	1362.33253	1431.08939	-899.24023	683.55601	990.35647	-543.55283	889.75157	979.54159	-538.61890	
569	5.69000	906.11450	1081.34659	-460.46455	668.35562	1090.86783	-460.02067	835.28474	1115.32283	-625.39346	748.74219	1115.11452	-625.97308	605.72818	834.39416	-562.57534	625.95650	757.94436	-497.54385	620.83944	663.06114	-576.23621	619.49481	543.89830	-565.86274	731.48893	526.04495	-579.98378	955.62857	864.57984	-574.15435	959.16846	750.64028	-512.72922	949.74997	655.50456	-576.63089	946.48223	534.21406	-560.43051	837.80314	522.39040	-581.16252	654.50472	410.07031	-550.03396	614.81049	358.74020	-598.89623	662.63095	229.85441	-582.13802	652.80698	120.01992	-631.62673	729.62551	140.57639	-600.83589	919.48736	417.27781	-550.95123	933.54399	320.46409	-639.46154	889.37944	229.07556	-576.60385	809.65634	127.38313	-595.87658	891.40361	110.42987	-621.64297	720.98324	98.63577	-683.27029	675.96849	73.74939	-461.16179	610.61548	55.22472	-539.99300	831.60180	87.31421	-680.45765	853.44667	76.06780	-454.15336	919.97781	56.07519	-515.19555	915.62304	1626.47266	-535.81927	658.36134	1605.51781	-542.01819	760.18661	1522.68032	-445.61414	776.97463	1604.27750	-562.51931	932.57332	1571.58048	-479.39621	908.63765	1587.10289	-613.13654	631.67454	1559.99405	-494.96631	670.18129	1582.13055	-606.77448	558.26940	1554.33814	-638.26326	559.72672	1481.73637	-698.03093	498.88759	1490.43997	-734.76626	440.64389	1476.02481	-774.05441	451.03555	1401.78720	-731.99176	984.44132	1572.51973	-637.63764	1027.28693	1496.06455	-684.01681	1090.05126	1532.21550	-708.40662	1155.18420	1512.49663	-757.79901	1150.26349	1436.40591	-718.59449	385.32160	1442.46415	-821.27754	187.89911	1400.37608	-867.55124	229.32780	1365.42597	-908.19038	1220.33980	1466.46064	-811.85899	1400.90510	1446.74794	-835.40813	1360.89716	1438.10217	-903.56292	683.52033	990.37041	-543.58278	889.71875	979.55858	-538.76664	
